<svg width="24" height="24" viewBox="0 0 24 24" fill="none" xmlns="http://www.w3.org/2000/svg">
<path fill-rule="evenodd" clip-rule="evenodd" d="M11.1054 2.00561C11.5724 2.05508 11.942 2.42286 11.9939 2.88961L13.5861 17.2192L15.05 13.9252C15.2894 13.3865 15.5001 12.9123 15.7174 12.537C15.9526 12.1307 16.2377 11.7623 16.665 11.4846C17.0923 11.2069 17.5448 11.096 18.0116 11.0461C18.4428 11 18.9617 11 19.5512 11L22 11V13H19.5995C18.9473 13 18.5365 13.0014 18.2243 13.0347C17.936 13.0656 17.8246 13.1162 17.7548 13.1616C17.6851 13.2069 17.5936 13.2881 17.4483 13.5391C17.291 13.8108 17.1229 14.1857 16.8581 14.7816L13.9138 21.4062C13.7304 21.8189 13.2931 22.0574 12.8468 21.9882C12.4005 21.9191 12.056 21.5593 12.0061 21.1105L10.5089 7.6356L9.84381 9.63091C9.63802 10.2484 9.45765 10.7896 9.2579 11.219C9.04196 11.6832 8.76381 12.1086 8.31261 12.4338C7.86141 12.759 7.36989 12.8883 6.86124 12.9464C6.39073 13.0001 5.82024 13.0001 5.16937 13L2 13V11H5.11696C5.83572 11 6.29081 10.9985 6.63438 10.9593C6.95239 10.923 7.07062 10.8636 7.14319 10.8113C7.21576 10.759 7.30951 10.6656 7.44452 10.3754C7.59038 10.0619 7.73572 9.6306 7.96301 8.94873L10.0513 2.68382C10.1998 2.23829 10.6383 1.95613 11.1054 2.00561Z" fill="#676C75"/>
</svg>
