<?xml version="1.0" encoding="UTF-8" standalone="no"?> <svg xmlns="http://www.w3.org/2000/svg" viewBox="0 0 48 48"><title>Weighing Scale</title><g id="_11_-_20" data-name="11 - 20"><g id="Weighing_Scale" data-name="Weighing Scale"><path d="M31.423,9.9a31.163,31.163,0,0,0-14.846,0,2.99,2.99,0,0,0-1.886,1.446,3.024,3.024,0,0,0-.233,2.394l1.233,3.81a2.977,2.977,0,0,0,2.844,2.07,3.057,3.057,0,0,0,.7-.081,21.36,21.36,0,0,1,9.532,0,2.988,2.988,0,0,0,3.543-1.989l1.233-3.81h0a3.027,3.027,0,0,0-.234-2.393A2.99,2.99,0,0,0,31.423,9.9Zm.217,3.224-1.233,3.81a1,1,0,0,1-1.19.657A23.047,23.047,0,0,0,25,17.03V15a1,1,0,0,0-2,0v2.03a23.069,23.069,0,0,0-4.218.563,1,1,0,0,1-1.189-.657l-1.233-3.81a1,1,0,0,1,.079-.806.972.972,0,0,1,.619-.477c.314-.078.634-.138.951-.205l.177.98a1,1,0,1,0,1.968-.356l-.176-.972A29.277,29.277,0,0,1,23,11.03V12a1,1,0,0,0,2,0v-.97a29.049,29.049,0,0,1,3.041.263l-.175.969a1,1,0,1,0,1.968.356l.176-.976c.311.066.624.125.932.2a.972.972,0,0,1,.619.477A1,1,0,0,1,31.64,13.126Z"/><path d="M39,4H9A5.006,5.006,0,0,0,4,9V39a5.006,5.006,0,0,0,5,5H39a5.006,5.006,0,0,0,5-5V9A5.006,5.006,0,0,0,39,4Zm3,35a3,3,0,0,1-3,3H9a3,3,0,0,1-3-3V9A3,3,0,0,1,9,6H39a3,3,0,0,1,3,3Z"/><path d="M24,26a1,1,0,0,0-1,1v9a1,1,0,0,0,2,0V27A1,1,0,0,0,24,26Z"/></g></g></svg>